# xmcd
#
# Track frame offsets:
#	150
#	18405
#	36140
#	54685
#	72550
#	91245
#	111915
#	133580
#	150290
#	169685
#
# Disc length: 2515 seconds
#
# Revision: 0
# Processed by: cddbd v1.4PL0 Copyright (c) Steve Scherf et al.
# Submitted via: EasyCDDAExtractor 5.0.4.1
#
DISCID=7e09d10a
DTITLE=Nueve Once (911) - Que Lo Que Ta Pasando
DYEAR=1900
DGENRE=blues
TTITLE0=Que Lo Que Ta Pasando
TTITLE1=El Salao
TTITLE2=Cuantas Mujeres
TTITLE3=La Bachatera (Bachata)
TTITLE4=Dame De Eso
TTITLE5=Damelo Mami
TTITLE6=Vengan Mi Gente
TTITLE7=El Se Hace El Loco
TTITLE8=La Viagra
TTITLE9=Soltero
EXTD=
EXTT0=
EXTT1=
EXTT2=
EXTT3=
EXTT4=
EXTT5=
EXTT6=
EXTT7=
EXTT8=
EXTT9=
PLAYORDER=
